HIERARCHY
ROOT SpineBase
{
  OFFSET 0.000000 0.000000 0.000000
  CHANNELS 6 Xposition Yposition Zposition Zrotation Xrotation Yrotation
  JOINT SpineMid
  {
    OFFSET 0.000000 30.630760 0.000000
    CHANNELS 3 Zrotation Xrotation Yrotation
    JOINT SpineShoulder
    {
      OFFSET -0.198447 22.659783 -0.669085
      CHANNELS 3 Zrotation Xrotation Yrotation
      JOINT Neck
      {
        OFFSET -0.129736 7.456623 -0.521906
        CHANNELS 3 Zrotation Xrotation Yrotation
        JOINT Head
        {
          OFFSET -1.195444 15.795018 1.801762
          CHANNELS 3 Zrotation Xrotation Yrotation
          End Site
          {
            OFFSET 0 0 0
          }
        }
      }
      JOINT ShoulderLeft
      {
        OFFSET -15.247832 -1.930426 6.078146
        CHANNELS 3 Zrotation Xrotation Yrotation
        JOINT ElbowLeft
        {
          OFFSET -1.421188 -18.412879 -6.064988
          CHANNELS 3 Zrotation Xrotation Yrotation
          JOINT WristLeft
          {
            OFFSET 6.970588 -5.730764 -24.684381
            CHANNELS 3 Zrotation Xrotation Yrotation
            JOINT HandLeft
            {
              OFFSET 4.024442 -1.973445 -3.361705
              CHANNELS 3 Zrotation Xrotation Yrotation
              JOINT HandTipLeft
              {
                OFFSET -3.052887 -1.940761 -5.515428
                CHANNELS 3 Zrotation Xrotation Yrotation
                End Site
                {
                  OFFSET 0 0 0
                }
              }
              JOINT ThumbLeft
              {
                OFFSET -0.597158 1.148206 -4.747037
                CHANNELS 3 Zrotation Xrotation Yrotation
                End Site
                {
                  OFFSET 0 0 0
                }
              }
            }
          }
        }
      }
      JOINT ShoulderRight
      {
        OFFSET 15.714224 -3.639831 -7.193478
        CHANNELS 3 Zrotation Xrotation Yrotation
        JOINT ElbowRight
        {
          OFFSET 5.117799 -19.860366 -3.342072
          CHANNELS 3 Zrotation Xrotation Yrotation
          JOINT WristRight
          {
            OFFSET -16.493244 -6.658939 -10.639632
            CHANNELS 3 Zrotation Xrotation Yrotation
            JOINT HandRight
            {
              OFFSET -4.326950 -1.571308 -0.756943
              CHANNELS 3 Zrotation Xrotation Yrotation
              JOINT HandTipRight
              {
                OFFSET -7.547527 -2.366835 -8.918658
                CHANNELS 3 Zrotation Xrotation Yrotation
                End Site
                {
                  OFFSET 0 0 0
                }
              }
              JOINT ThumbRight
              {
                OFFSET -2.273111 4.119634 -4.650190
                CHANNELS 3 Zrotation Xrotation Yrotation
                End Site
                {
                  OFFSET 0 0 0
                }
              }
            }
          }
        }
      }
    }
  }
  JOINT HipLeft
  {
    OFFSET -7.623751 -0.259582 -1.189565
    CHANNELS 3 Zrotation Xrotation Yrotation
    JOINT KneeLeft
    {
      OFFSET 0.887409 -36.857658 2.615999
      CHANNELS 3 Zrotation Xrotation Yrotation
      JOINT AnkleLeft
      {
        OFFSET 2.764752 -32.797582 7.920240
        CHANNELS 3 Zrotation Xrotation Yrotation
        JOINT FootLeft
        {
          OFFSET -3.354282 -3.714439 -11.231711
          CHANNELS 3 Zrotation Xrotation Yrotation
          End Site
          {
            OFFSET 0 0 0
          }
        }
      }
    }
  }
  JOINT HipRight
  {
    OFFSET 6.508903 0.768763 -6.352381
    CHANNELS 3 Zrotation Xrotation Yrotation
    JOINT KneeRight
    {
      OFFSET 6.431999 -35.757174 -0.921613
      CHANNELS 3 Zrotation Xrotation Yrotation
      JOINT AnkleRight
      {
        OFFSET 4.720833 -31.611435 9.048492
        CHANNELS 3 Zrotation Xrotation Yrotation
        JOINT FootRight
        {
          OFFSET -3.551571 -3.734352 -11.205034
          CHANNELS 3 Zrotation Xrotation Yrotation
          End Site
          {
            OFFSET 0 0 0
          }
        }
      }
    }
  }
}
MOTION
Frames: 13
Frame Time: 0.033333
57.462954 76.552529 398.495182 -0.000000 0.000000 20.067810 0.000000 0.000000 -20.067810 -0.000000 0.000000 0.000000 -0.000000 0.000000 0.000000 0.000000 0.000000 0.000000 -0.000000 0.000000 0.000000 -0.000000 0.000000 0.000000 -0.000000 0.000000 0.000000 -0.000000 0.000000 0.000000 0.000000 0.000000 0.000000 0.000000 0.000000 0.000000 -0.000000 0.000000 0.000000 -0.000000 0.000000 0.000000 -0.000000 0.000000 0.000000 -0.000000 0.000000 0.000000 0.000000 0.000000 0.000000 0.000000 0.000000 0.000000 0.000000 0.000000 -20.067810 -0.000000 0.000000 0.000000 -0.000000 0.000000 0.000000 0.000000 0.000000 0.000000 0.000000 0.000000 -20.067810 -0.000000 0.000000 0.000000 -0.000000 0.000000 0.000000 0.000000 0.000000 0.000000
57.229284 76.571582 398.481382 0.157798 0.285348 19.921554 -0.245585 -0.214504 -19.922407 -0.000000 0.000000 0.000000 -0.000000 0.000000 0.000000 0.000000 0.000000 0.000000 -0.301083 -1.393013 0.203812 0.377301 -0.033285 -2.389177 -9.363250 10.499725 37.041441 3.835415 -3.659583 -36.165048 0.000000 0.000000 0.000000 0.000000 0.000000 0.000000 -0.000000 0.000000 0.000000 -0.000000 0.000000 0.000000 1.194916 1.245853 -4.114379 -1.583392 -0.683230 3.570463 0.000000 0.000000 0.000000 0.000000 0.000000 0.000000 -0.245585 -0.214504 -19.922407 -0.000000 0.000000 0.000000 -0.000000 0.000000 0.000000 0.000000 0.000000 0.000000 -0.245585 -0.214504 -19.922407 -0.000000 0.000000 0.000000 -0.000000 0.000000 0.000000 0.000000 0.000000 0.000000
56.990454 76.590606 398.482363 0.274343 0.529123 19.783190 -0.437249 -0.405031 -19.786002 -0.000000 0.000000 0.000000 -0.000000 0.000000 0.000000 0.000000 0.000000 0.000000 -0.512292 -1.856607 0.305280 0.564774 -0.745272 -4.094307 -15.542796 13.226019 55.500483 7.320894 -5.430597 -52.896482 0.000000 0.000000 0.000000 0.000000 0.000000 0.000000 -0.000000 0.000000 0.000000 -0.000000 0.000000 0.000000 2.161026 2.014264 -6.919157 -2.800091 -1.118674 5.772490 0.000000 0.000000 0.000000 0.000000 0.000000 0.000000 -0.437249 -0.405031 -19.786002 -0.000000 0.000000 0.000000 -0.000000 0.000000 0.000000 0.000000 0.000000 0.000000 -0.437249 -0.405031 -19.786002 -0.000000 0.000000 0.000000 -0.000000 0.000000 0.000000 0.000000 0.000000 0.000000
56.746464 76.609599 398.498124 0.349827 0.731618 19.652782 -0.575531 -0.571325 -19.657885 -0.000000 0.000000 0.000000 -0.000000 0.000000 0.000000 0.000000 0.000000 0.000000 -0.643334 -1.422735 0.314890 0.600688 -2.120405 -5.148202 -18.635001 14.155874 64.601169 9.604055 -6.654181 -61.022448 0.000000 0.000000 0.000000 0.000000 0.000000 0.000000 -0.000000 0.000000 0.000000 -0.650399 0.124439 0.720321 3.625228 2.298320 -9.506800 -3.717251 -1.395074 7.032865 0.000000 0.000000 0.000000 0.000000 0.000000 0.000000 -0.575531 -0.571325 -19.657885 -0.000000 0.000000 0.000000 -0.000000 0.000000 0.000000 0.000000 0.000000 0.000000 -0.575531 -0.571325 -19.657885 0.514938 0.751773 0.256599 -0.518344 -0.749429 -0.263368 0.000000 0.000000 0.000000
56.497314 76.628562 398.528666 0.384381 0.893069 19.530313 -0.106796 0.069261 -19.518531 -0.110960 -0.065167 0.008817 0.523247 -0.396123 -0.060964 0.000000 0.000000 0.000000 -0.149983 -0.857379 -0.026524 -0.166940 -4.263678 -5.337713 -20.170025 14.776700 69.349537 10.702138 -8.083812 -65.653831 0.000000 0.000000 0.000000 0.000000 0.000000 0.000000 -0.594577 -0.009276 0.263421 -0.251032 -0.691327 0.410384 4.316217 2.490530 -10.671483 -4.369284 -1.578107 7.614998 0.000000 0.000000 0.000000 0.000000 0.000000 0.000000 0.114301 -1.214687 -19.465794 -0.897919 0.214466 -0.056906 -0.000000 0.000000 0.000000 0.000000 0.000000 0.000000 -0.660868 -0.713152 -19.537422 0.667331 0.904779 0.321318 -0.672477 -0.900960 -0.331875 0.000000 0.000000 0.000000
56.243004 76.647495 398.573989 0.378072 1.013650 19.415681 -0.118361 0.074134 -19.403967 -0.117811 -0.075381 0.008268 0.819588 -0.255522 -0.070083 0.000000 0.000000 0.000000 -0.788894 1.205006 0.025894 0.316450 -6.955711 -5.384666 -20.797518 15.404895 71.593372 10.651467 -10.097179 -68.674092 0.000000 0.000000 0.000000 0.000000 0.000000 0.000000 -0.684785 0.051359 0.326024 -0.093547 -0.837480 0.214851 4.811060 2.528904 -11.155784 -4.781361 -1.711942 7.682204 0.000000 0.000000 0.000000 0.000000 0.000000 0.000000 0.238500 -1.416000 -19.335445 -0.231442 0.412110 0.144593 -0.614689 0.042915 -1.090439 0.000000 0.000000 0.000000 -0.693590 -0.830286 -19.424051 0.811491 1.011165 0.376687 -0.598362 -0.759811 -1.273432 0.000000 0.000000 0.000000
55.962194 76.662232 398.649003 0.285774 1.064883 19.315201 -0.129534 0.066431 -19.305489 -0.108397 -0.084399 0.005052 1.394602 0.079018 -0.089549 0.000000 0.000000 0.000000 -1.059052 1.755407 0.111120 0.603403 -6.969162 -4.157439 -20.485786 14.185274 69.813242 11.657487 -8.893422 -67.035393 0.000000 0.000000 0.000000 0.000000 0.000000 0.000000 -0.625493 0.103799 0.359387 0.585094 -1.107775 -0.378390 6.065501 1.673350 -8.833043 -6.932361 -0.286852 4.385033 0.000000 0.000000 0.000000 0.000000 0.000000 0.000000 0.460894 -1.546407 -19.217999 -0.180094 0.475172 0.187855 -0.782464 0.011763 -1.300681 0.000000 0.000000 0.000000 -0.621980 -0.910388 -19.322798 0.943919 1.083228 0.423668 -0.690886 -0.794872 -1.478186 0.000000 0.000000 0.000000
55.705074 76.652775 398.710257 0.168527 1.094589 18.824172 -0.119295 0.057855 -18.816180 -0.088966 -0.086684 0.002463 1.992577 0.483406 -0.111534 0.000000 0.000000 0.000000 -0.676731 6.292933 -0.298764 0.044627 -11.366148 -1.818247 -19.114545 15.541769 67.021080 8.079921 -13.335084 -67.689801 0.000000 0.000000 0.000000 0.000000 0.000000 0.000000 -0.709064 0.137058 0.407672 -0.418502 -0.372933 -0.496707 5.166538 3.058285 -13.532794 -1.402647 -5.209746 10.915175 0.000000 0.000000 0.000000 0.000000 0.000000 0.000000 0.637313 -1.790607 -18.716140 -0.044771 0.708186 0.246946 -0.993434 -0.036322 -1.520557 0.000000 0.000000 0.000000 -0.512758 -0.981646 -18.830174 1.044362 1.101564 0.454049 -0.749892 -0.781164 -1.663667 0.000000 0.000000 0.000000
55.453976 76.659802 398.793650 0.122800 1.130279 18.659728 -0.112330 0.065041 -18.652163 -0.079153 -0.088439 0.001873 2.192366 0.684205 -0.112547 0.000000 0.000000 0.000000 0.972712 14.857285 -1.578127 -1.992837 -22.212653 -0.264742 -17.744448 17.714148 65.094755 1.558238 -23.575571 -70.130723 0.000000 0.000000 0.000000 0.000000 0.000000 0.000000 -0.787357 0.225514 0.461421 0.597295 -0.848476 -1.153497 2.860501 3.759172 -12.722854 0.005297 -5.054170 10.000484 0.000000 0.000000 0.000000 0.000000 0.000000 0.000000 0.770023 -1.887876 -18.540084 0.111474 0.847799 0.309466 -1.226028 -0.131924 -1.709576 0.000000 0.000000 0.000000 -0.478034 -1.031561 -18.665243 1.166790 1.068671 0.483264 -0.839919 -0.726480 -1.809890 0.000000 0.000000 0.000000
55.207208 76.712472 398.890613 0.067457 1.182669 18.958801 -0.106702 0.048223 -18.951657 -0.052843 -0.079555 0.002628 2.160870 0.832582 -0.093460 0.000000 0.000000 0.000000 2.416640 23.143234 -2.926097 -3.379757 -31.130926 2.454495 -15.737810 17.696599 59.520261 1.060594 -27.274223 -70.918724 0.000000 0.000000 0.000000 0.000000 0.000000 0.000000 -0.797918 0.479994 0.545791 1.505947 -1.513622 -1.773383 4.036811 2.008938 -7.558168 -3.891527 -1.612386 3.210823 0.000000 0.000000 0.000000 0.000000 0.000000 0.000000 0.922964 -1.858346 -18.825545 0.316655 0.803584 0.376673 -1.512459 -0.214235 -1.817821 0.000000 0.000000 0.000000 0.307935 -0.683392 -18.852644 0.757266 0.347749 0.431121 -1.001519 -0.638714 -1.875507 0.000000 0.000000 0.000000
54.976992 76.805031 398.996915 -0.016758 1.187590 19.800589 -0.068062 0.047812 -19.793484 -0.044105 -0.084897 0.001398 2.342468 1.242414 -0.082277 0.000000 0.000000 0.000000 2.936631 28.463121 -3.641371 -3.316698 -34.738691 4.828485 -14.061437 20.583139 58.652397 -16.050924 -41.025407 -84.128242 0.000000 0.000000 0.000000 0.000000 0.000000 0.000000 -0.746489 0.740800 0.618351 2.214411 -2.185776 -2.036666 8.878012 -2.320766 5.658272 -10.635356 7.455362 -11.259224 0.000000 0.000000 0.000000 0.000000 0.000000 0.000000 1.157065 -1.639940 -19.650666 0.519597 0.573900 0.442586 -1.800965 -0.291740 -1.893773 0.000000 0.000000 0.000000 0.625683 -0.788166 -19.690748 0.616951 0.298018 0.462970 -1.119667 -0.609388 -1.904599 0.000000 0.000000 0.000000
54.770593 77.136314 399.138726 -0.038023 1.217103 24.756870 -0.055409 0.055713 -24.749608 -0.041245 -0.136579 0.000346 2.214671 1.614222 -0.045235 0.000000 0.000000 0.000000 3.642573 40.431838 -5.141043 -3.175470 -47.653459 6.338836 -12.791191 26.090684 61.152697 -47.619630 -50.951929 -113.677707 0.000000 0.000000 0.000000 0.000000 0.000000 0.000000 -0.855751 0.993881 0.702731 2.523117 -2.409234 -2.477062 10.628286 -3.867218 11.851716 -11.621869 11.224620 -17.616304 0.000000 0.000000 0.000000 0.000000 0.000000 0.000000 1.502423 -0.597259 -24.588092 0.723703 -0.594153 0.492517 -1.998280 -0.395725 -1.816213 0.000000 0.000000 0.000000 0.300197 -1.712827 -24.804650 0.677857 1.184744 0.656658 -1.331606 -0.641122 -1.833095 0.000000 0.000000 0.000000
54.585080 77.310775 399.317791 -0.261290 1.384671 25.096108 -0.017878 0.202802 -25.090814 0.039250 -0.191098 -0.001803 2.935775 0.763038 -0.119558 0.000000 0.000000 0.000000 4.141608 43.298860 -5.626396 -2.503763 -49.066672 7.055099 -13.131683 27.405327 63.401289 -55.111603 -49.577859 -124.779583 0.000000 0.000000 0.000000 0.000000 0.000000 0.000000 -0.750753 1.234069 0.852258 2.453383 -2.657747 -3.046866 7.664505 -4.038920 12.730138 -8.330288 9.105957 -15.734555 0.000000 0.000000 0.000000 0.000000 0.000000 0.000000 1.799983 -0.635126 -24.905330 0.879523 -0.872807 0.544563 -2.292169 -0.388805 -1.636504 0.000000 0.000000 0.000000 0.657048 -1.875054 -25.103982 0.638955 1.053943 0.677330 -1.545955 -0.690800 -1.650082 0.000000 0.000000 0.000000
